<svg width="1861" height="617" viewBox="0 0 1861 617" fill="none" xmlns="http://www.w3.org/2000/svg">
<path d="M472.856 452V424.624H494.568V314.176H472.856V286.8H540.824C563.008 286.8 579.843 292.464 591.328 303.792C602.971 314.962 608.792 331.64 608.792 353.824V384.976C608.792 407.16 602.971 423.916 591.328 435.244C579.843 446.414 563.008 452 540.824 452H472.856ZM525.72 423.68H541.296C553.883 423.68 563.087 420.376 568.908 413.768C574.729 407.16 577.64 397.877 577.64 385.92V352.88C577.64 340.765 574.729 331.482 568.908 325.032C563.087 318.424 553.883 315.12 541.296 315.12H525.72V423.68Z" fill="black"/>
<path d="M635.7 452V334.944H665.436V452H635.7Z" fill="black"/>
<path d="M692.723 393.944V390.168C692.723 377.896 695.162 367.433 700.039 358.78C704.916 349.969 711.367 343.282 719.391 338.72C727.572 334 736.462 331.64 746.059 331.64C756.758 331.64 764.86 333.528 770.367 337.304C775.874 341.08 779.886 345.013 782.403 349.104H786.651V334.944H815.915V472.768C815.915 480.792 813.555 487.164 808.835 491.884C804.115 496.761 797.822 499.2 789.955 499.2H711.603V473.24H779.571C783.977 473.24 786.179 470.88 786.179 466.16V435.716H781.931C780.358 438.233 778.155 440.829 775.323 443.504C772.491 446.021 768.715 448.145 763.995 449.876C759.275 451.606 753.296 452.472 746.059 452.472C736.462 452.472 727.572 450.19 719.391 445.628C711.367 440.908 704.916 434.221 700.039 425.568C695.162 416.757 692.723 406.216 692.723 393.944ZM754.555 426.512C763.68 426.512 771.311 423.601 777.447 417.78C783.583 411.958 786.651 403.777 786.651 393.236V390.876C786.651 380.177 783.583 371.996 777.447 366.332C771.468 360.51 763.838 357.6 754.555 357.6C745.43 357.6 737.799 360.51 731.663 366.332C725.527 371.996 722.459 380.177 722.459 390.876V393.236C722.459 403.777 725.527 411.958 731.663 417.78C737.799 423.601 745.43 426.512 754.555 426.512Z" fill="black"/>
<path d="M848.883 452V334.944H878.619V452H848.883Z" fill="black"/>
<path d="M956.411 452C948.701 452 942.408 449.64 937.531 444.92C932.811 440.042 930.451 433.592 930.451 425.568V359.488H901.187V334.944H930.451V298.6H960.187V334.944H992.283V359.488H960.187V420.376C960.187 425.096 962.389 427.456 966.795 427.456H989.451V452H956.411Z" fill="black"/>
<path d="M1055.54 455.304C1047.2 455.304 1039.73 453.888 1033.12 451.056C1026.52 448.066 1021.24 443.818 1017.31 438.312C1013.54 432.648 1011.65 425.804 1011.65 417.78C1011.65 409.756 1013.54 403.069 1017.31 397.72C1021.24 392.213 1026.59 388.122 1033.36 385.448C1040.28 382.616 1048.15 381.2 1056.96 381.2H1089.06V374.592C1089.06 369.085 1087.32 364.601 1083.86 361.14C1080.4 357.521 1074.9 355.712 1067.34 355.712C1059.95 355.712 1054.44 357.442 1050.82 360.904C1047.21 364.208 1044.84 368.534 1043.74 373.884L1016.37 364.68C1018.26 358.701 1021.24 353.273 1025.34 348.396C1029.58 343.361 1035.17 339.349 1042.09 336.36C1049.17 333.213 1057.75 331.64 1067.82 331.64C1083.23 331.64 1095.43 335.494 1104.4 343.204C1113.36 350.913 1117.85 362.084 1117.85 376.716V420.376C1117.85 425.096 1120.05 427.456 1124.46 427.456H1133.9V452H1114.07C1108.25 452 1103.45 450.584 1099.68 447.752C1095.9 444.92 1094.01 441.144 1094.01 436.424V436.188H1089.53C1088.9 438.076 1087.48 440.593 1085.28 443.74C1083.08 446.729 1079.62 449.404 1074.9 451.764C1070.18 454.124 1063.72 455.304 1055.54 455.304ZM1060.74 431.232C1069.07 431.232 1075.84 428.95 1081.03 424.388C1086.38 419.668 1089.06 413.453 1089.06 405.744V403.384H1059.08C1053.58 403.384 1049.25 404.564 1046.1 406.924C1042.96 409.284 1041.38 412.588 1041.38 416.836C1041.38 421.084 1043.04 424.545 1046.34 427.22C1049.64 429.894 1054.44 431.232 1060.74 431.232Z" fill="black"/>
<path d="M1155.64 452V286.8H1185.37V452H1155.64Z" fill="black"/>
<path d="M1212.66 452V424.624H1234.37V314.176H1212.66V286.8H1297.62C1307.69 286.8 1316.42 288.53 1323.82 291.992C1331.37 295.296 1337.19 300.094 1341.28 306.388C1345.53 312.524 1347.65 319.918 1347.65 328.572V330.932C1347.65 338.484 1346.24 344.698 1343.4 349.576C1340.57 354.296 1337.19 357.993 1333.26 360.668C1329.48 363.185 1325.86 364.994 1322.4 366.096V370.344C1325.86 371.288 1329.64 373.097 1333.73 375.772C1337.82 378.289 1341.28 381.986 1344.11 386.864C1347.1 391.741 1348.6 398.113 1348.6 405.98V408.34C1348.6 417.465 1346.47 425.332 1342.22 431.94C1337.98 438.39 1332.08 443.346 1324.52 446.808C1317.13 450.269 1308.48 452 1298.56 452H1212.66ZM1265.52 423.68H1294.79C1301.55 423.68 1306.98 422.028 1311.07 418.724C1315.32 415.42 1317.44 410.7 1317.44 404.564V402.204C1317.44 396.068 1315.4 391.348 1311.31 388.044C1307.22 384.74 1301.71 383.088 1294.79 383.088H1265.52V423.68ZM1265.52 354.768H1294.32C1300.77 354.768 1306.04 353.116 1310.13 349.812C1314.38 346.508 1316.5 341.945 1316.5 336.124V333.764C1316.5 327.785 1314.46 323.222 1310.36 320.076C1306.27 316.772 1300.92 315.12 1294.32 315.12H1265.52V354.768Z" fill="black"/>
<path d="M1375.04 452V334.944H1404.31V348.16H1408.56C1410.29 343.44 1413.12 339.978 1417.05 337.776C1421.14 335.573 1425.86 334.472 1431.21 334.472H1445.37V360.904H1430.74C1423.19 360.904 1416.97 362.949 1412.1 367.04C1407.22 370.973 1404.78 377.109 1404.78 385.448V452H1375.04Z" fill="black"/>
<path d="M1502.19 455.304C1493.85 455.304 1486.38 453.888 1479.77 451.056C1473.16 448.066 1467.89 443.818 1463.96 438.312C1460.18 432.648 1458.3 425.804 1458.3 417.78C1458.3 409.756 1460.18 403.069 1463.96 397.72C1467.89 392.213 1473.24 388.122 1480.01 385.448C1486.93 382.616 1494.8 381.2 1503.61 381.2H1535.7V374.592C1535.7 369.085 1533.97 364.601 1530.51 361.14C1527.05 357.521 1521.54 355.712 1513.99 355.712C1506.6 355.712 1501.09 357.442 1497.47 360.904C1493.85 364.208 1491.49 368.534 1490.39 373.884L1463.02 364.68C1464.9 358.701 1467.89 353.273 1471.98 348.396C1476.23 343.361 1481.82 339.349 1488.74 336.36C1495.82 333.213 1504.39 331.64 1514.46 331.64C1529.88 331.64 1542.08 335.494 1551.04 343.204C1560.01 350.913 1564.5 362.084 1564.5 376.716V420.376C1564.5 425.096 1566.7 427.456 1571.1 427.456H1580.54V452H1560.72C1554.9 452 1550.1 450.584 1546.32 447.752C1542.55 444.92 1540.66 441.144 1540.66 436.424V436.188H1536.18C1535.55 438.076 1534.13 440.593 1531.93 443.74C1529.73 446.729 1526.26 449.404 1521.54 451.764C1516.82 454.124 1510.37 455.304 1502.19 455.304ZM1507.38 431.232C1515.72 431.232 1522.49 428.95 1527.68 424.388C1533.03 419.668 1535.7 413.453 1535.7 405.744V403.384H1505.73C1500.23 403.384 1495.9 404.564 1492.75 406.924C1489.61 409.284 1488.03 412.588 1488.03 416.836C1488.03 421.084 1489.68 424.545 1492.99 427.22C1496.29 429.894 1501.09 431.232 1507.38 431.232Z" fill="black"/>
<path d="M1602.29 452V334.944H1631.55V350.284H1635.8C1637.69 346.193 1641.23 342.338 1646.42 338.72C1651.61 334.944 1659.48 333.056 1670.02 333.056C1679.14 333.056 1687.09 335.18 1693.85 339.428C1700.78 343.518 1706.13 349.261 1709.9 356.656C1713.68 363.893 1715.57 372.389 1715.57 382.144V452H1685.83V384.504C1685.83 375.693 1683.63 369.085 1679.22 364.68C1674.97 360.274 1668.84 358.072 1660.81 358.072C1651.69 358.072 1644.61 361.14 1639.57 367.276C1634.54 373.254 1632.02 381.672 1632.02 392.528V452H1602.29Z" fill="black"/>
<path d="M1747.71 452V334.944H1776.98V350.284H1781.22C1783.11 346.193 1786.65 342.338 1791.84 338.72C1797.04 334.944 1804.9 333.056 1815.44 333.056C1824.57 333.056 1832.51 335.18 1839.28 339.428C1846.2 343.518 1851.55 349.261 1855.33 356.656C1859.1 363.893 1860.99 372.389 1860.99 382.144V452H1831.26V384.504C1831.26 375.693 1829.05 369.085 1824.65 364.68C1820.4 360.274 1814.26 358.072 1806.24 358.072C1797.11 358.072 1790.03 361.14 1785 367.276C1779.96 373.254 1777.45 381.672 1777.45 392.528V452H1747.71Z" fill="black"/>
<path d="M95.251 204.173C95.251 204.173 71.3219 180.733 78.838 148.432C82.8078 131.368 100.524 120.208 112.144 107.916C123.988 95.3896 129.44 72.752 129.44 72.752C129.44 72.752 142.101 88.2195 134.129 118.17C129.005 137.423 113.012 151.372 106.451 162.81C96.289 180.518 95.251 204.173 95.251 204.173Z" fill="url(#paint0_linear_182_598)"/>
<path d="M417.039 451.694C396.161 546.258 311.842 616.999 211 616.999C101.182 616.999 10.9592 533.104 0.926974 425.908C0.320753 420.38 0 414.843 0 409.315C0 408.77 0.00219909 408.226 0.00657343 407.682C0.00219384 407.122 0 406.561 0 405.999C0.0090213 405.999 0.0180418 405.999 0.0270613 405.999C1.63962 307.022 74.7818 225.049 74.7818 225.049C74.7818 225.049 63.5704 258.827 91.2336 280.606C108.452 294.161 116.922 309.683 120.871 319.48C113.269 292.968 97.5388 217.563 141.854 156.412C190.118 89.8081 256.912 64 256.912 64C256.912 64 236.604 110.206 250.156 149.937C256.183 167.603 267.153 180.886 278.631 194.785C289.581 208.044 300.994 221.863 309.017 240.583C310.643 244.375 311.944 248.38 312.974 252.5C312.974 285 312.549 323.575 312.549 323.575C312.549 323.575 319.5 323.575 334 323.575C355 323.575 355 323.575 355 323.575C355 323.575 360.5 323.575 405.388 323.575C414.895 348.713 421.508 376.594 421.974 405.999C421.982 405.999 421.991 405.999 422 405.999C422 406.56 421.998 407.12 421.993 407.68C421.998 408.225 422 408.77 422 409.315C422 423.874 420.191 438.047 417.039 451.694Z" fill="url(#paint1_linear_182_598)"/>
<rect x="457" y="124" width="70" height="70" fill="#EF5A06"/>
<rect x="386" y="57" width="50" height="50" fill="#F9C40E"/>
<rect x="556" y="209" width="50" height="50" fill="#F9C40E"/>
<rect x="466" width="40" height="40" fill="#EF5A06"/>
<rect x="326" y="10" width="30" height="30" fill="#E80207"/>
<rect x="328" y="209" width="100" height="100" fill="#E80207"/>
<rect x="636" y="289" width="30" height="30" fill="#E80207"/>
<rect x="849" y="289" width="30" height="30" fill="#E80207"/>
<defs>
<linearGradient id="paint0_linear_182_598" x1="107.07" y1="72.752" x2="107.07" y2="204.173" gradientUnits="userSpaceOnUse">
<stop stop-color="#F9C40E"/>
<stop offset="0.526042" stop-color="#EF5A06"/>
<stop offset="1" stop-color="#E80207"/>
</linearGradient>
<linearGradient id="paint1_linear_182_598" x1="211" y1="64.3367" x2="211" y2="514.396" gradientUnits="userSpaceOnUse">
<stop stop-color="#F9CD0E"/>
<stop offset="0.5" stop-color="#EF5A06"/>
<stop offset="1" stop-color="#E70106"/>
</linearGradient>
</defs>
</svg>
